<svg id="Layer_1" data-name="Layer 1" xmlns="http://www.w3.org/2000/svg" viewBox="0 0 1080 1080"><defs><style>.cls-1{fill:#f9f9fa;}.cls-2{font-size:28px;font-family:Gotham-Book, Gotham;}.cls-2,.cls-3,.cls-4,.cls-6{fill:#3c3c3c;}.cls-3{font-size:24px;font-family:GothamNarrow-Book, Gotham Narrow;}.cls-5,.cls-8,.cls-9{fill:none;stroke:#3d3d3d;stroke-miterlimit:10;}.cls-5{stroke-width:1.01px;}.cls-5,.cls-7{opacity:0.5;}.cls-6{font-size:30px;font-family:Gotham-Bold, Gotham;}.cls-13,.cls-6{font-weight:700;}.cls-9{stroke-dasharray:11.59 11.59;}.cls-10{fill:#9a4e95;}.cls-11{font-size:32.49px;font-family:Gotham-Medium, Gotham;font-weight:500;}.cls-11,.cls-13{fill:#231f20;}.cls-12{letter-spacing:-0.02em;}.cls-13{font-size:38.99px;font-family:GothamNarrow-Bold, Gotham Narrow;}.cls-14{letter-spacing:-0.09em;}.cls-15{fill:#ecad20;}.cls-16{letter-spacing:-0.02em;}.cls-17{letter-spacing:-0.02em;}.cls-18{letter-spacing:-0.01em;}</style></defs><title>social-media-esp</title><rect class="cls-1" width="1080" height="1080"/><text class="cls-2" transform="translate(40 109.2) scale(1 1.11)">La tasa de mujeres jóvenes desocupadas es casi el doble que la <tspan x="0" y="30.24">de hombres.</tspan></text><text class="cls-3" transform="translate(40 1059.25)">Datos: Instituto Nacional de Estadística de Guyana (2017)</text><path class="cls-4" d="M1014.19,1051.37a4,4,0,0,0,1.89-3.57v0a4.08,4.08,0,0,0-1.23-3,6.28,6.28,0,0,0-4.56-1.56h-8v17.27h8.22c4.15,0,6.53-1.77,6.53-4.86v0a4.17,4.17,0,0,0-2.82-4.16m-3.71,5.3h-4.11v-3.15h4c1.64,0,2.47.52,2.47,1.55v0c0,1-.79,1.55-2.35,1.55m-4.11-6.74v-3h3.37c1,0,2.15.25,2.15,1.45v.05c0,1-.8,1.51-2.39,1.51Z"/><path class="cls-4" d="M1030.84,1043.16h-6.79v17.27h6.79a9.44,9.44,0,0,0,6.6-2.49,8.44,8.44,0,0,0,2.56-6.15v0c0-5-3.85-8.59-9.16-8.59m4.78,8.63v0a4.51,4.51,0,0,1-4.78,4.74h-2.58V1047h2.58a4.52,4.52,0,0,1,4.78,4.78"/><path class="cls-4" d="M1020.28,1043.13a2.11,2.11,0,0,1,2.1,2.11v15.19h-4.21v-17.3Z"/><path class="cls-4" d="M984.69,1054.41c-2.22,3.6,4.93,3.66,1.62,10.39l-.29,0a14.11,14.11,0,0,1-13.69-21.93c-.36,8.13,14.44,8.12,12.36,11.49m3.16,10c.76-1.41,2.42-3.48,6-7.65,5.31-6.23-10.41-4.14-13.1-8.85-2.22-3.89,6-6.68,11-8.85a14.11,14.11,0,0,1-3.88,25.35m-4.66-17.79c-.53.27.42,1.5,2.84,1.57s-.7-2.7-2.84-1.57m5.35,1.31c-1.82-.59-.62.87.24,1s1-.54-.24-1m1.89,1.42c-.6,0-.71.34.2.54,1.28.27.41-.51-.2-.54"/><line class="cls-5" x1="40" y1="1030" x2="1040" y2="1030"/><text class="cls-6" transform="translate(40 65.5) scale(1 1.11)">Desempleo juvenil en Guyana</text><g class="cls-7"><line class="cls-8" x1="540.02" y1="419.36" x2="540.02" y2="425.36"/><line class="cls-9" x1="540.02" y1="436.95" x2="540.02" y2="732.5"/><line class="cls-8" x1="540.02" y1="738.3" x2="540.02" y2="744.3"/></g><rect class="cls-10" x="121.53" y="504.11" width="108.31" height="374.77"/><rect class="cls-10" x="320.88" y="272.32" width="108.31" height="606.56"/><text class="cls-11" transform="translate(101.96 947.89)">Homb<tspan class="cls-12" x="98.72" y="0">r</tspan><tspan x="111.55" y="0">es</tspan></text><text class="cls-11" transform="translate(312.03 947.89)">Muje<tspan class="cls-12" x="77.27" y="0">r</tspan><tspan x="90.11" y="0">es</tspan></text><text class="cls-13" transform="translate(128.82 471.76)">1<tspan class="cls-14" x="14.51" y="0">7</tspan><tspan x="32.13" y="0">,3%</tspan></text><text class="cls-13" transform="translate(322.18 239.97)">28,8%</text><rect class="cls-15" x="648.52" y="348.14" width="108.31" height="530.74"/><rect class="cls-15" x="869.2" y="434.79" width="108.31" height="444.09"/><text class="cls-11" transform="translate(642.48 947.89)">Urbano</text><text class="cls-11" transform="translate(881.05 947.89)">Ru<tspan class="cls-16" x="43.64" y="0">r</tspan><tspan x="56.25" y="0">al</tspan></text><text class="cls-13" transform="translate(869.69 402.44)">2<tspan class="cls-17" x="21.25" y="0">0</tspan><tspan x="45.43" y="0">,5%</tspan></text><text class="cls-13" transform="translate(649.59 315.79)"><tspan class="cls-18">2</tspan><tspan x="20.71" y="0">4,5%</tspan></text></svg>