<svg id="Layer_1" data-name="Layer 1" xmlns="http://www.w3.org/2000/svg" viewBox="0 0 1080 930"><defs><style>.cls-1{fill:#f9f9fa;}.cls-2{fill:#3c3c3c;}.cls-3,.cls-6,.cls-7{fill:none;stroke:#3d3d3d;stroke-miterlimit:10;}.cls-3{stroke-width:1.01px;}.cls-3,.cls-5{opacity:0.5;}.cls-4{fill:#222;}.cls-7{stroke-dasharray:12.29 12.29;}.cls-8{fill:#9a4e95;}.cls-9{fill:#231f20;}.cls-10{fill:#ecad20;}</style></defs><title>web-eng</title><rect class="cls-1" width="1080" height="930"/><path class="cls-2" d="M48.9,100.58,40.76,87.42h2.68l6.61,10.89,6.67-10.89h2.57l-8.15,13.13v8.65H48.9Z"/><path class="cls-2" d="M61.56,101.23v-.06c0-4.54,3.19-8.4,7.56-8.4s7.53,3.8,7.53,8.34v.06c0,4.54-3.22,8.4-7.59,8.4S61.56,105.78,61.56,101.23Zm12.88,0v-.06c0-3.45-2.32-6.28-5.38-6.28s-5.29,2.83-5.29,6.22v.06c0,3.45,2.3,6.26,5.35,6.26S74.44,104.62,74.44,101.23Z"/><path class="cls-2" d="M80.32,103.1v-10h2.16v9.4c0,3,1.45,4.85,4,4.85s4.34-2,4.34-5V93.11H93V109.2H90.82v-2.8a5.45,5.45,0,0,1-5,3.14C82.36,109.54,80.32,106.93,80.32,103.1Z"/><path class="cls-2" d="M97.79,93.11H100v2.8a5.41,5.41,0,0,1,5-3.14c3.5,0,5.55,2.61,5.55,6.44v10h-2.16V99.8c0-3-1.45-4.85-4-4.85S100,97,100,100v9.21H97.79Z"/><path class="cls-2" d="M114.87,112l1-1.87a8.64,8.64,0,0,0,5.57,2.06c3.2,0,5.27-2,5.27-5.73v-1.9A6.73,6.73,0,0,1,121,108c-3.47,0-6.8-2.9-6.8-7.53v-.07c0-4.69,3.36-7.59,6.8-7.59A6.64,6.64,0,0,1,126.66,96v-2.9h2.16V106.4a8.27,8.27,0,0,1-1.85,5.69,7.19,7.19,0,0,1-5.52,2.15A10.58,10.58,0,0,1,114.87,112Zm11.87-11.61v-.06a5.31,5.31,0,0,0-5.32-5.44c-2.74,0-5,2.11-5,5.41v.06a5.18,5.18,0,0,0,5,5.48A5.36,5.36,0,0,0,126.74,100.39Z"/><path class="cls-2" d="M140.8,93.11h2.3L146.9,106l3.89-13h1.8l3.92,13,3.81-12.92h2.24l-5.1,16.21h-1.88l-3.89-12.69-3.92,12.69h-1.9Z"/><path class="cls-2" d="M165.24,101.23v-.06c0-4.54,3.2-8.4,7.56-8.4s7.54,3.8,7.54,8.34v.06c0,4.54-3.22,8.4-7.59,8.4S165.24,105.78,165.24,101.23Zm12.88,0v-.06c0-3.45-2.32-6.28-5.37-6.28s-5.29,2.83-5.29,6.22v.06c0,3.45,2.29,6.26,5.34,6.26S178.12,104.62,178.12,101.23Z"/><path class="cls-2" d="M184.23,93.11h2.15v2.71c1-1.59,2.24-3,4.68-3A4.92,4.92,0,0,1,195.71,96a5.67,5.67,0,0,1,5.09-3.21c3.33,0,5.38,2.49,5.38,6.47v10H204V99.8c0-3.11-1.4-4.85-3.75-4.85-2.18,0-4,1.8-4,5v9.27h-2.15V99.74c0-3-1.43-4.79-3.72-4.79s-4,2.12-4,5.07v9.18h-2.15Z"/><path class="cls-2" d="M210,101.2v-.06c0-4.63,2.94-8.37,6.94-8.37,4.29,0,6.75,3.8,6.75,8.5a6.36,6.36,0,0,1,0,.77H212.14c.31,3.49,2.52,5.45,5.1,5.45a5.73,5.73,0,0,0,4.56-2.27l1.35,1.33a7.19,7.19,0,0,1-6,3C213.21,109.57,210,106.18,210,101.2Zm11.51-.93c-.23-2.92-1.74-5.48-4.62-5.48-2.52,0-4.43,2.34-4.71,5.48Z"/><path class="cls-2" d="M227.43,93.11h2.16v2.8a5.41,5.41,0,0,1,4.95-3.14c3.5,0,5.55,2.61,5.55,6.44v10h-2.16V99.8c0-3-1.46-4.85-4-4.85s-4.34,2-4.34,5v9.21h-2.16Z"/><path class="cls-2" d="M252.85,103.1v-10H255v9.4c0,3,1.46,4.85,4,4.85s4.34-2,4.34-5V93.11h2.13V109.2h-2.13v-2.8a5.44,5.44,0,0,1-5,3.14C254.9,109.54,252.85,106.93,252.85,103.1Z"/><path class="cls-2" d="M270.33,93.11h2.15v2.8a5.43,5.43,0,0,1,5-3.14c3.5,0,5.54,2.61,5.54,6.44v10h-2.15V99.8c0-3-1.46-4.85-4-4.85s-4.34,2-4.34,5v9.21h-2.15Z"/><path class="cls-2" d="M286.68,101.2v-.06c0-4.63,2.94-8.37,6.94-8.37,4.29,0,6.75,3.8,6.75,8.5a6.36,6.36,0,0,1,0,.77H288.86c.31,3.49,2.52,5.45,5.1,5.45a5.73,5.73,0,0,0,4.56-2.27l1.35,1.33a7.19,7.19,0,0,1-6,3C289.93,109.57,286.68,106.18,286.68,101.2Zm11.51-.93c-.23-2.92-1.74-5.48-4.62-5.48-2.52,0-4.43,2.34-4.71,5.48Z"/><path class="cls-2" d="M304.15,93.11h2.16v2.71c.95-1.59,2.24-3,4.67-3A4.91,4.91,0,0,1,315.63,96a5.7,5.7,0,0,1,5.1-3.21c3.33,0,5.37,2.49,5.37,6.47v10H324V99.8c0-3.11-1.4-4.85-3.76-4.85-2.18,0-4,1.8-4,5v9.27h-2.16V99.74c0-3-1.43-4.79-3.72-4.79s-4,2.12-4,5.07v9.18h-2.16Z"/><path class="cls-2" d="M330.78,93.11h2.15v3.24c1.18-1.93,2.89-3.58,5.55-3.58,3.47,0,6.91,3,6.91,8.34v.06c0,5.26-3.41,8.37-6.91,8.37a6.44,6.44,0,0,1-5.55-3.42v8.06h-2.15Zm12.4,8.09v-.06c0-3.79-2.35-6.22-5.09-6.22s-5.24,2.52-5.24,6.19v.06c0,3.74,2.55,6.22,5.24,6.22S343.18,105.09,343.18,101.2Z"/><path class="cls-2" d="M349.57,86.49h2.15V109.2h-2.15Z"/><path class="cls-2" d="M355.84,101.23v-.06c0-4.54,3.19-8.4,7.56-8.4s7.53,3.8,7.53,8.34v.06c0,4.54-3.22,8.4-7.59,8.4S355.84,105.78,355.84,101.23Zm12.88,0v-.06c0-3.45-2.33-6.28-5.38-6.28s-5.29,2.83-5.29,6.22v.06c0,3.45,2.3,6.26,5.35,6.26S368.72,104.62,368.72,101.23Z"/><path class="cls-2" d="M385.66,93.11H388l-6.07,16.62c-1.24,3.33-2.63,4.54-4.82,4.54a6.05,6.05,0,0,1-3.08-.81l.73-1.9a4.11,4.11,0,0,0,2.27.59c1.29,0,2.1-.74,3-3l-6.58-16h2.38L381,106.52Z"/><path class="cls-2" d="M391.37,93.11h2.16v2.71c1-1.59,2.24-3,4.67-3A4.92,4.92,0,0,1,402.85,96a5.68,5.68,0,0,1,5.1-3.21c3.33,0,5.37,2.49,5.37,6.47v10h-2.15V99.8c0-3.11-1.41-4.85-3.76-4.85-2.18,0-4,1.8-4,5v9.27h-2.16V99.74c0-3-1.43-4.79-3.72-4.79s-4,2.12-4,5.07v9.18h-2.16Z"/><path class="cls-2" d="M417.1,101.2v-.06c0-4.63,2.94-8.37,6.94-8.37,4.29,0,6.75,3.8,6.75,8.5a6.36,6.36,0,0,1,0,.77H419.28c.31,3.49,2.52,5.45,5.1,5.45a5.73,5.73,0,0,0,4.56-2.27l1.35,1.33a7.19,7.19,0,0,1-6,3C420.35,109.57,417.1,106.18,417.1,101.2Zm11.51-.93c-.23-2.92-1.74-5.48-4.62-5.48-2.52,0-4.43,2.34-4.71,5.48Z"/><path class="cls-2" d="M434.57,93.11h2.16v2.8a5.41,5.41,0,0,1,4.95-3.14c3.5,0,5.55,2.61,5.55,6.44v10h-2.16V99.8c0-3-1.45-4.85-4-4.85s-4.34,2-4.34,5v9.21h-2.16Z"/><path class="cls-2" d="M452.58,104.94V95.23h-2V93.11h2V88.26h2.15v4.85h4.59v2.12h-4.59v9.39c0,2,1,2.68,2.44,2.68a4.12,4.12,0,0,0,2.1-.56v2.05a5,5,0,0,1-2.61.69C454.34,109.48,452.58,108.2,452.58,104.94Z"/><path class="cls-2" d="M471.53,93.11h2.16v4.2c1.06-2.67,3.16-4.6,5.91-4.48v2.59h-.17c-3.17,0-5.74,2.52-5.74,7.37v6.41h-2.16Z"/><path class="cls-2" d="M481.78,104.53v-.06c0-3.39,2.52-5.2,6.19-5.2a13.77,13.77,0,0,1,4.45.69V99.4c0-2.89-1.6-4.39-4.31-4.39a9.32,9.32,0,0,0-4.4,1.18l-.64-2a11,11,0,0,1,5.26-1.33A6,6,0,0,1,493,94.67a6.77,6.77,0,0,1,1.48,4.7v9.83h-2.07v-2.43a6.16,6.16,0,0,1-5.24,2.77C484.5,109.54,481.78,107.83,481.78,104.53Zm10.67-1.24v-1.56a13.82,13.82,0,0,0-4.26-.68c-2.71,0-4.23,1.3-4.23,3.33v.06c0,2,1.68,3.2,3.64,3.2C490.26,107.64,492.45,105.84,492.45,103.29Z"/><path class="cls-2" d="M499.84,104.94V95.23h-2V93.11h2V88.26H502v4.85h4.59v2.12H502v9.39c0,2,1,2.68,2.43,2.68a4.09,4.09,0,0,0,2.1-.56v2.05a4.94,4.94,0,0,1-2.6.69C501.6,109.48,499.84,108.2,499.84,104.94Z"/><path class="cls-2" d="M509.5,101.2v-.06c0-4.63,2.94-8.37,6.94-8.37,4.29,0,6.75,3.8,6.75,8.5a6.36,6.36,0,0,1,0,.77H511.68c.31,3.49,2.52,5.45,5.1,5.45a5.73,5.73,0,0,0,4.56-2.27l1.35,1.33a7.19,7.19,0,0,1-6,3C512.75,109.57,509.5,106.18,509.5,101.2Zm11.51-.93c-.23-2.92-1.74-5.48-4.62-5.48-2.52,0-4.43,2.34-4.71,5.48Z"/><path class="cls-2" d="M535.43,87h2.46V89.6h-2.46Zm.14,6.16h2.15V109.2h-2.15Z"/><path class="cls-2" d="M541.53,107.15l1.09-1.72a8,8,0,0,0,5,2.06c1.74,0,3-1,3-2.55v-.06c0-1.62-1.71-2.25-3.61-2.84-2.27-.71-4.79-1.58-4.79-4.54v-.06c0-2.77,2.07-4.61,4.93-4.61a9.24,9.24,0,0,1,5.21,1.78l-1,1.8a7.7,7.7,0,0,0-4.29-1.55c-1.71,0-2.8,1-2.8,2.33v.06c0,1.53,1.79,2.12,3.73,2.77,2.24.75,4.64,1.71,4.64,4.6v.07c0,3-2.26,4.82-5.15,4.82A9.35,9.35,0,0,1,541.53,107.15Z"/><path class="cls-2" d="M564,104.53v-.06c0-3.39,2.52-5.2,6.18-5.2a13.72,13.72,0,0,1,4.45.69V99.4c0-2.89-1.59-4.39-4.31-4.39a9.32,9.32,0,0,0-4.39,1.18l-.65-2a11.12,11.12,0,0,1,5.27-1.33,6,6,0,0,1,4.67,1.77,6.78,6.78,0,0,1,1.49,4.7v9.83h-2.08v-2.43a6.13,6.13,0,0,1-5.23,2.77C566.7,109.54,564,107.83,564,104.53Zm10.66-1.24v-1.56a13.75,13.75,0,0,0-4.25-.68c-2.72,0-4.23,1.3-4.23,3.33v.06c0,2,1.68,3.2,3.64,3.2C572.47,107.64,574.65,105.84,574.65,103.29Z"/><path class="cls-2" d="M581.49,86.49h2.15V109.2h-2.15Z"/><path class="cls-2" d="M588.65,93.11h2.16v2.71c1-1.59,2.24-3,4.67-3A4.9,4.9,0,0,1,600.13,96a5.7,5.7,0,0,1,5.1-3.21c3.33,0,5.38,2.49,5.38,6.47v10h-2.16V99.8c0-3.11-1.4-4.85-3.75-4.85-2.19,0-4,1.8-4,5v9.27h-2.16V99.74c0-3-1.42-4.79-3.72-4.79s-4,2.12-4,5.07v9.18h-2.16Z"/><path class="cls-2" d="M614.38,101.23v-.06c0-4.54,3.2-8.4,7.56-8.4s7.54,3.8,7.54,8.34v.06c0,4.54-3.22,8.4-7.59,8.4S614.38,105.78,614.38,101.23Zm12.88,0v-.06c0-3.45-2.32-6.28-5.37-6.28s-5.29,2.83-5.29,6.22v.06c0,3.45,2.29,6.26,5.34,6.26S627.26,104.62,627.26,101.23Z"/><path class="cls-2" d="M632.16,107.15l1.1-1.72a7.93,7.93,0,0,0,5,2.06c1.73,0,3-1,3-2.55v-.06c0-1.62-1.7-2.25-3.61-2.84-2.27-.71-4.79-1.58-4.79-4.54v-.06c0-2.77,2.08-4.61,4.93-4.61A9.19,9.19,0,0,1,643,94.61l-1,1.8a7.64,7.64,0,0,0-4.28-1.55c-1.71,0-2.8,1-2.8,2.33v.06c0,1.53,1.79,2.12,3.72,2.77,2.24.75,4.65,1.71,4.65,4.6v.07c0,3-2.27,4.82-5.15,4.82A9.38,9.38,0,0,1,632.16,107.15Z"/><path class="cls-2" d="M648.07,104.94V95.23h-2V93.11h2V88.26h2.15v4.85h4.6v2.12h-4.6v9.39c0,2,1,2.68,2.44,2.68a4.12,4.12,0,0,0,2.1-.56v2.05a5,5,0,0,1-2.6.69C649.83,109.48,648.07,108.2,648.07,104.94Z"/><path class="cls-2" d="M666.18,101.2v-.06c0-5.26,3.45-8.37,6.92-8.37a6.43,6.43,0,0,1,5.54,3.42v-9.7h2.16V109.2h-2.16V106c-1.17,1.93-2.88,3.58-5.54,3.58C669.63,109.54,666.18,106.49,666.18,101.2Zm12.55,0v-.06c0-3.7-2.55-6.19-5.24-6.19s-5.1,2.3-5.1,6.19v.06c0,3.8,2.39,6.22,5.1,6.22S678.73,104.88,678.73,101.17Z"/><path class="cls-2" d="M684.72,101.23v-.06c0-4.54,3.19-8.4,7.56-8.4s7.53,3.8,7.53,8.34v.06c0,4.54-3.22,8.4-7.59,8.4S684.72,105.78,684.72,101.23Zm12.88,0v-.06c0-3.45-2.33-6.28-5.38-6.28s-5.29,2.83-5.29,6.22v.06c0,3.45,2.3,6.26,5.35,6.26S697.6,104.62,697.6,101.23Z"/><path class="cls-2" d="M703.48,103.1v-10h2.15v9.4c0,3,1.46,4.85,4,4.85s4.34-2,4.34-5V93.11h2.13V109.2H714v-2.8a5.46,5.46,0,0,1-5,3.14C705.52,109.54,703.48,106.93,703.48,103.1Z"/><path class="cls-2" d="M723.11,106.12v3.08H721V86.49h2.16v9.86c1.17-1.93,2.88-3.58,5.54-3.58,3.47,0,6.92,3,6.92,8.34v.06c0,5.26-3.42,8.37-6.92,8.37A6.43,6.43,0,0,1,723.11,106.12Zm10.24-4.92v-.06c0-3.79-2.35-6.22-5.09-6.22S723,97.44,723,101.11v.06c0,3.74,2.55,6.22,5.24,6.22S733.35,105.09,733.35,101.2Z"/><path class="cls-2" d="M739.74,86.49h2.15V109.2h-2.15Z"/><path class="cls-2" d="M746,101.2v-.06c0-4.63,2.94-8.37,6.94-8.37,4.29,0,6.75,3.8,6.75,8.5a6.36,6.36,0,0,1,0,.77H748.19c.31,3.49,2.52,5.45,5.1,5.45a5.73,5.73,0,0,0,4.56-2.27l1.35,1.33a7.19,7.19,0,0,1-6,3C749.26,109.57,746,106.18,746,101.2Zm11.51-.93c-.23-2.92-1.74-5.48-4.62-5.48-2.52,0-4.43,2.34-4.71,5.48Z"/><path class="cls-2" d="M772.64,104.94V95.23h-2V93.11h2V88.26h2.15v4.85h4.59v2.12h-4.59v9.39c0,2,1,2.68,2.44,2.68a4.12,4.12,0,0,0,2.1-.56v2.05a5,5,0,0,1-2.61.69C774.4,109.48,772.64,108.2,772.64,104.94Z"/><path class="cls-2" d="M783.19,86.49h2.16v9.42a5.41,5.41,0,0,1,4.95-3.14c3.5,0,5.55,2.61,5.55,6.44v10h-2.16V99.8c0-3-1.45-4.85-4-4.85s-4.34,2-4.34,5v9.21h-2.16Z"/><path class="cls-2" d="M799.35,104.53v-.06c0-3.39,2.52-5.2,6.19-5.2A13.82,13.82,0,0,1,810,100V99.4c0-2.89-1.6-4.39-4.31-4.39a9.32,9.32,0,0,0-4.4,1.18l-.64-2a11,11,0,0,1,5.26-1.33,6,6,0,0,1,4.68,1.77,6.77,6.77,0,0,1,1.48,4.7v9.83H810v-2.43a6.16,6.16,0,0,1-5.24,2.77C802.06,109.54,799.35,107.83,799.35,104.53ZM810,103.29v-1.56a13.82,13.82,0,0,0-4.26-.68c-2.72,0-4.23,1.3-4.23,3.33v.06c0,2,1.68,3.2,3.64,3.2C807.83,107.64,810,105.84,810,103.29Z"/><path class="cls-2" d="M816.65,93.11h2.16v2.8a5.41,5.41,0,0,1,5-3.14c3.5,0,5.55,2.61,5.55,6.44v10h-2.16V99.8c0-3-1.45-4.85-4-4.85s-4.34,2-4.34,5v9.21h-2.16Z"/><path class="cls-2" d="M842.3,93.11h2.16v2.71c.95-1.59,2.24-3,4.67-3A4.91,4.91,0,0,1,853.78,96a5.7,5.7,0,0,1,5.1-3.21c3.33,0,5.37,2.49,5.37,6.47v10H862.1V99.8c0-3.11-1.4-4.85-3.76-4.85-2.18,0-4,1.8-4,5v9.27h-2.16V99.74c0-3-1.43-4.79-3.72-4.79s-4,2.12-4,5.07v9.18H842.3Z"/><path class="cls-2" d="M868,101.2v-.06c0-4.63,2.94-8.37,7-8.37,4.28,0,6.74,3.8,6.74,8.5,0,.31,0,.49,0,.77H870.22c.3,3.49,2.52,5.45,5.09,5.45a5.76,5.76,0,0,0,4.57-2.27l1.34,1.33a7.19,7.19,0,0,1-6,3C871.28,109.57,868,106.18,868,101.2Zm11.51-.93c-.22-2.92-1.74-5.48-4.62-5.48-2.52,0-4.42,2.34-4.7,5.48Z"/><path class="cls-2" d="M885.5,93.11h2.16v2.8a5.42,5.42,0,0,1,5-3.14c3.5,0,5.54,2.61,5.54,6.44v10H896V99.8c0-3-1.45-4.85-4-4.85s-4.34,2-4.34,5v9.21H885.5Z"/><path class="cls-2" d="M901.77,93.39c1.4-.56,2-1.36,1.88-2.7h-1V87.42h2.58v2.8c0,2.52-1,3.73-3.11,4.26Z"/><path class="cls-2" d="M908.41,107.15l1.09-1.72a8,8,0,0,0,5,2.06c1.74,0,3-1,3-2.55v-.06c0-1.62-1.71-2.25-3.61-2.84-2.27-.71-4.79-1.58-4.79-4.54v-.06c0-2.77,2.07-4.61,4.93-4.61a9.18,9.18,0,0,1,5.2,1.78l-1,1.8A7.64,7.64,0,0,0,914,94.86c-1.71,0-2.8,1-2.8,2.33v.06c0,1.53,1.79,2.12,3.72,2.77,2.24.75,4.65,1.71,4.65,4.6v.07c0,3-2.27,4.82-5.15,4.82A9.35,9.35,0,0,1,908.41,107.15Z"/><path class="cls-2" d="M923.3,105.93h2.58v3.27H923.3Z"/><path class="cls-2" d="M42,892.45h4.75c4.68,0,7.89,3.36,7.89,8.3v.17c0,4.92-3.21,8.33-7.89,8.33H42Zm1.8,1.65v13.49h2.9c3.67,0,6.07-2.66,6.07-6.64v-.17c0-4-2.4-6.68-6.07-6.68Z"/><path class="cls-2" d="M57,905.63v-.1c0-2.57,1.85-4,4.61-4a10.27,10.27,0,0,1,3.22.5v-.74a2.85,2.85,0,0,0-3.2-3.1,6.81,6.81,0,0,0-3.19.84l-.55-1.42a8.7,8.7,0,0,1,3.94-1,4.75,4.75,0,0,1,3.5,1.25,4.62,4.62,0,0,1,1.2,3.38v8h-1.7v-1.82A4.33,4.33,0,0,1,61,909.51,3.82,3.82,0,0,1,57,905.63Zm7.85-.72v-1.56a8.74,8.74,0,0,0-3-.51c-2,0-3.1,1-3.1,2.62v.07a2.5,2.5,0,0,0,2.66,2.54A3.25,3.25,0,0,0,64.84,904.91Z"/><path class="cls-2" d="M70.43,906.35v-8.07H68.92v-1.53h1.51V893.1h1.73v3.65h3.26v1.53H72.16v7.78a1.59,1.59,0,0,0,1.8,1.8,3.61,3.61,0,0,0,1.46-.34V909a4.26,4.26,0,0,1-1.87.43A2.8,2.8,0,0,1,70.43,906.35Z"/><path class="cls-2" d="M77.39,905.63v-.1c0-2.57,1.85-4,4.61-4a10.27,10.27,0,0,1,3.22.5v-.74a2.85,2.85,0,0,0-3.2-3.1,6.81,6.81,0,0,0-3.19.84l-.55-1.42a8.7,8.7,0,0,1,3.94-1,4.75,4.75,0,0,1,3.5,1.25,4.62,4.62,0,0,1,1.2,3.38v8h-1.7v-1.82a4.33,4.33,0,0,1-3.82,2.08A3.82,3.82,0,0,1,77.39,905.63Zm7.85-.72v-1.56a8.74,8.74,0,0,0-3-.51c-2,0-3.1,1-3.1,2.62v.07a2.49,2.49,0,0,0,2.66,2.54A3.25,3.25,0,0,0,85.24,904.91Z"/><path class="cls-2" d="M90.21,896.77h2.16v2.45H90.21Zm0,10h2.16v2.47H90.21Z"/><path class="cls-2" d="M102.3,892.45H108a5.7,5.7,0,0,1,4.15,1.44,3.77,3.77,0,0,1,1.11,2.76v.05a4,4,0,0,1-2.76,3.91c2,.58,3.48,1.75,3.48,4v.07c0,2.86-2.33,4.54-5.86,4.54H102.3Zm9.12,4.44c0-1.73-1.29-2.81-3.52-2.81h-3.8V900h3.63c2.23,0,3.69-1.11,3.69-3ZM108,901.57H104.1v6h4.08c2.43,0,4-1.11,4-3v0C112.14,902.67,110.68,901.57,108,901.57Z"/><path class="cls-2" d="M116.73,905v-8.2h1.73v7.7c0,2.23,1.05,3.48,2.87,3.48s3.17-1.42,3.17-3.55v-7.63h1.73v12.5H124.5v-2a4,4,0,0,1-3.69,2.28C118.26,909.49,116.73,907.74,116.73,905Z"/><path class="cls-2" d="M129.78,896.75h1.73v2.75a4.41,4.41,0,0,1,4.3-2.92v1.87h-.1c-2.33,0-4.2,1.63-4.2,4.85v6h-1.73Z"/><path class="cls-2" d="M137.53,903.11V903c0-3.82,2.24-6.49,5.17-6.49,3.14,0,5,2.69,5,6.46,0,.17,0,.51,0,.72h-8.4c.19,2.76,1.89,4.3,3.86,4.3a4.4,4.4,0,0,0,3.24-1.44l1,1.1a5.68,5.68,0,0,1-4.3,1.87C140,909.51,137.53,907.07,137.53,903.11Zm8.45-.77c-.12-2.38-1.25-4.32-3.28-4.32-1.85,0-3.24,1.7-3.41,4.32Z"/><path class="cls-2" d="M149.68,905.63v-.1c0-2.57,1.85-4,4.61-4a10.15,10.15,0,0,1,3.21.5v-.74a2.84,2.84,0,0,0-3.19-3.1,6.75,6.75,0,0,0-3.19.84l-.55-1.42a8.66,8.66,0,0,1,3.93-1,4.76,4.76,0,0,1,3.51,1.25,4.62,4.62,0,0,1,1.2,3.38v8H157.5v-1.82a4.3,4.3,0,0,1-3.81,2.08A3.82,3.82,0,0,1,149.68,905.63Zm7.85-.72v-1.56a8.8,8.8,0,0,0-3-.51c-2,0-3.09,1-3.09,2.62v.07a2.49,2.49,0,0,0,2.66,2.54A3.25,3.25,0,0,0,157.53,904.91Z"/><path class="cls-2" d="M162.4,905v-8.2h1.73v7.7c0,2.23,1.05,3.48,2.88,3.48s3.16-1.42,3.16-3.55v-7.63h1.73v12.5h-1.73v-2a4,4,0,0,1-3.69,2.28C163.93,909.49,162.4,907.74,162.4,905Z"/><path class="cls-2" d="M181,903.11v-.17c0-3.65,2.35-6.44,5.57-6.44s5.54,2.77,5.54,6.41v.15c0,3.65-2.35,6.45-5.57,6.45S181,906.75,181,903.11Zm9.36,0V903c0-2.81-1.68-4.89-3.82-4.89s-3.77,2.08-3.77,4.87v.12c0,2.81,1.66,4.89,3.8,4.89S190.36,905.84,190.36,903.08Z"/><path class="cls-2" d="M195.59,898.28h-1.54v-1.51h1.54v-1.15a4.12,4.12,0,0,1,1-2.91,3.31,3.31,0,0,1,2.42-.89,5.61,5.61,0,0,1,1.66.24v1.54a5.15,5.15,0,0,0-1.42-.24c-1.24,0-1.89.77-1.89,2.35v1.06h3.26v1.51h-3.24v11h-1.75Z"/><path class="cls-2" d="M208,907.11l1.13-1.36a6.68,6.68,0,0,0,4.73,2.08c2,0,3.36-1.22,3.36-2.83v0c0-1.39-.67-2.28-3.72-3.36-3.48-1.3-4.85-2.55-4.85-4.92v-.05c0-2.52,2.11-4.44,5.07-4.44a7.33,7.33,0,0,1,5,1.89l-1.08,1.4a6,6,0,0,0-4-1.64c-1.92,0-3.16,1.18-3.16,2.62v0c0,1.46.74,2.3,3.91,3.46,3.41,1.27,4.65,2.63,4.65,4.87v0c0,2.68-2.2,4.58-5.2,4.58A8.23,8.23,0,0,1,208,907.11Z"/><path class="cls-2" d="M222.54,906.35v-8.07H221v-1.53h1.51V893.1h1.73v3.65h3.26v1.53h-3.26v7.78a1.59,1.59,0,0,0,1.8,1.8,3.61,3.61,0,0,0,1.46-.34V909a4.26,4.26,0,0,1-1.87.43A2.79,2.79,0,0,1,222.54,906.35Z"/><path class="cls-2" d="M229.5,905.63v-.1c0-2.57,1.85-4,4.61-4a10.27,10.27,0,0,1,3.22.5v-.74a2.85,2.85,0,0,0-3.2-3.1,6.75,6.75,0,0,0-3.19.84l-.55-1.42a8.67,8.67,0,0,1,3.94-1,4.75,4.75,0,0,1,3.5,1.25,4.62,4.62,0,0,1,1.2,3.38v8h-1.7v-1.82a4.33,4.33,0,0,1-3.82,2.08A3.82,3.82,0,0,1,229.5,905.63Zm7.85-.72v-1.56a8.74,8.74,0,0,0-3-.51c-2,0-3.1,1-3.1,2.62v.07a2.49,2.49,0,0,0,2.66,2.54A3.25,3.25,0,0,0,237.35,904.91Z"/><path class="cls-2" d="M242.94,906.35v-8.07h-1.51v-1.53h1.51V893.1h1.73v3.65h3.26v1.53h-3.26v7.78a1.59,1.59,0,0,0,1.8,1.8,3.61,3.61,0,0,0,1.46-.34V909a4.26,4.26,0,0,1-1.87.43A2.8,2.8,0,0,1,242.94,906.35Z"/><path class="cls-2" d="M250.76,892.14h1.92v2h-1.92Zm.1,4.61h1.73v12.5h-1.73Z"/><path class="cls-2" d="M255.16,907.71l.91-1.27a5.66,5.66,0,0,0,3.65,1.51c1.36,0,2.32-.76,2.32-1.94v0c0-1.11-1-1.68-2.71-2.38-2-.86-3.57-1.66-3.57-3.6v0c0-2,1.65-3.41,3.88-3.41a6.78,6.78,0,0,1,3.94,1.35l-.84,1.32A5.45,5.45,0,0,0,259.6,898c-1.32,0-2.16.77-2.16,1.75v.05c0,1.06,1.08,1.59,2.78,2.31,2.07.91,3.5,1.77,3.5,3.67v0c0,2.23-1.8,3.6-4.05,3.6A6.94,6.94,0,0,1,255.16,907.71Z"/><path class="cls-2" d="M267.11,906.35v-8.07H265.6v-1.53h1.51V893.1h1.73v3.65h3.26v1.53h-3.26v7.78a1.59,1.59,0,0,0,1.8,1.8,3.61,3.61,0,0,0,1.46-.34V909a4.26,4.26,0,0,1-1.87.43A2.79,2.79,0,0,1,267.11,906.35Z"/><path class="cls-2" d="M274.93,892.14h1.92v2h-1.92Zm.1,4.61h1.73v12.5H275Z"/><path class="cls-2" d="M279.78,903.13V903c0-3.79,2.45-6.46,5.57-6.46a5.3,5.3,0,0,1,3.93,1.71l-1,1.29a4,4,0,0,0-2.93-1.41c-2.08,0-3.76,2-3.76,4.87v.12c0,2.95,1.72,4.85,3.84,4.85a4,4,0,0,0,2.92-1.44l1,1.15a5.11,5.11,0,0,1-4,1.87C282.16,909.51,279.78,906.92,279.78,903.13Z"/><path class="cls-2" d="M290.77,907.71l.91-1.27a5.68,5.68,0,0,0,3.65,1.51c1.37,0,2.33-.76,2.33-1.94v0c0-1.11-1-1.68-2.71-2.38-2-.86-3.58-1.66-3.58-3.6v0c0-2,1.66-3.41,3.89-3.41a6.78,6.78,0,0,1,3.94,1.35l-.84,1.32a5.46,5.46,0,0,0-3.15-1.18c-1.32,0-2.16.77-2.16,1.75v.05c0,1.06,1.08,1.59,2.79,2.31,2.06.91,3.5,1.77,3.5,3.67v0c0,2.23-1.8,3.6-4.06,3.6A7,7,0,0,1,290.77,907.71Z"/><path class="cls-2" d="M308,901v-.17c0-4.87,3.07-8.57,7.49-8.57a7.39,7.39,0,0,1,5.09,1.8l-1.08,1.44a5.77,5.77,0,0,0-4.06-1.56c-3.19,0-5.57,2.88-5.57,6.89v.12c0,4.22,2.28,7,5.74,7a6.05,6.05,0,0,0,3.62-1.2v-4.73H315v-1.61h5.93v7.2a8.65,8.65,0,0,1-5.42,2C310.93,909.49,308,906,308,901Z"/><path class="cls-2" d="M324.23,905v-8.2H326v7.7c0,2.23,1.05,3.48,2.87,3.48s3.17-1.42,3.17-3.55v-7.63h1.73v12.5H332v-2a4,4,0,0,1-3.69,2.28C325.76,909.49,324.23,907.74,324.23,905Z"/><path class="cls-2" d="M345.2,896.75h1.85l-4.44,12.72c-.89,2.59-2,3.48-3.65,3.48a4.74,4.74,0,0,1-2.25-.58l.52-1.44a3.38,3.38,0,0,0,1.64.46c.93,0,1.53-.53,2.16-2.14l-4.8-12.5h1.87L341.84,907Z"/><path class="cls-2" d="M348.78,905.63v-.1c0-2.57,1.85-4,4.61-4a10.15,10.15,0,0,1,3.21.5v-.74a2.84,2.84,0,0,0-3.19-3.1,6.75,6.75,0,0,0-3.19.84l-.55-1.42a8.66,8.66,0,0,1,3.93-1,4.76,4.76,0,0,1,3.51,1.25,4.62,4.62,0,0,1,1.2,3.38v8H356.6v-1.82a4.32,4.32,0,0,1-3.81,2.08A3.82,3.82,0,0,1,348.78,905.63Zm7.85-.72v-1.56a8.8,8.8,0,0,0-3-.51c-2,0-3.09,1-3.09,2.62v.07a2.49,2.49,0,0,0,2.66,2.54A3.25,3.25,0,0,0,356.63,904.91Z"/><path class="cls-2" d="M361.67,896.75h1.72v2a4.06,4.06,0,0,1,3.7-2.29c2.54,0,4.08,1.76,4.08,4.57v8.18h-1.73v-7.71c0-2.23-1.05-3.47-2.88-3.47s-3.17,1.43-3.17,3.57v7.61h-1.72Z"/><path class="cls-2" d="M373.74,905.63v-.1c0-2.57,1.85-4,4.61-4a10.15,10.15,0,0,1,3.21.5v-.74a2.84,2.84,0,0,0-3.19-3.1,6.75,6.75,0,0,0-3.19.84l-.56-1.42a8.73,8.73,0,0,1,3.94-1,4.77,4.77,0,0,1,3.51,1.25,4.66,4.66,0,0,1,1.2,3.38v8h-1.71v-1.82a4.32,4.32,0,0,1-3.81,2.08A3.82,3.82,0,0,1,373.74,905.63Zm7.85-.72v-1.56a8.8,8.8,0,0,0-3-.51c-2,0-3.1,1-3.1,2.62v.07a2.5,2.5,0,0,0,2.67,2.54A3.25,3.25,0,0,0,381.59,904.91Z"/><path class="cls-2" d="M392.46,902.34a11.26,11.26,0,0,1,6-10.23l.69,1.13a10.87,10.87,0,0,0,0,18.19l-.69,1.13A11.26,11.26,0,0,1,392.46,902.34Z"/><path class="cls-2" d="M401.17,907.86l5.42-6.05c2-2.16,2.79-3.39,2.79-4.94a2.9,2.9,0,0,0-3-3c-1.53,0-2.64.82-3.77,2.4l-1.24-1a5.84,5.84,0,0,1,5.18-3,4.44,4.44,0,0,1,4.73,4.49v.07c0,2.16-1,3.58-3.38,6.05l-4.2,4.75h7.7v1.68h-10.2Z"/><path class="cls-2" d="M413.94,901v-.19c0-5,2.37-8.6,6.09-8.6s6.08,3.51,6.08,8.55v.19c0,5-2.38,8.59-6.1,8.59S413.94,906,413.94,901Zm10.32,0v-.19c0-4-1.71-7-4.25-7s-4.23,2.88-4.23,6.91v.19c0,4,1.68,7,4.25,7S424.26,905,424.26,901Z"/><path class="cls-2" d="M431.07,894.27l-2.73,1-.32-1.56,3.48-1.32h1.35v16.9h-1.78Z"/><path class="cls-2" d="M444.2,894.13h-7.87v-1.68h9.81v1.37l-6.48,15.43h-1.94Z"/><path class="cls-2" d="M448.28,911.43a10.87,10.87,0,0,0,0-18.19l.7-1.13a11.74,11.74,0,0,1,0,20.45Z"/><path class="cls-2" d="M1014.19,901.37a4,4,0,0,0,1.89-3.57v0a4.08,4.08,0,0,0-1.23-3,6.28,6.28,0,0,0-4.56-1.56h-8v17.27h8.22c4.15,0,6.53-1.77,6.53-4.86v0a4.17,4.17,0,0,0-2.82-4.16m-3.71,5.3h-4.11v-3.15h4c1.64,0,2.47.52,2.47,1.55v0c0,1-.79,1.55-2.35,1.55m-4.11-6.74v-3h3.37c1,0,2.15.25,2.15,1.45v0c0,1-.8,1.51-2.39,1.51Z"/><path class="cls-2" d="M1030.84,893.16h-6.79v17.27h6.79a9.44,9.44,0,0,0,6.6-2.49,8.44,8.44,0,0,0,2.56-6.15v0c0-5-3.85-8.59-9.16-8.59m4.78,8.63v.05a4.51,4.51,0,0,1-4.78,4.74h-2.58V897h2.58a4.52,4.52,0,0,1,4.78,4.78"/><path class="cls-2" d="M1020.28,893.13a2.11,2.11,0,0,1,2.1,2.11v15.19h-4.21v-17.3Z"/><path class="cls-2" d="M984.69,904.41c-2.22,3.6,4.93,3.66,1.62,10.39l-.29.05a14.11,14.11,0,0,1-13.69-21.93c-.36,8.13,14.44,8.12,12.36,11.49m3.16,10c.76-1.41,2.42-3.48,6-7.65,5.31-6.23-10.41-4.14-13.1-8.85-2.22-3.89,6-6.68,11-8.85a14.11,14.11,0,0,1-3.88,25.35m-4.66-17.79c-.53.27.42,1.5,2.84,1.57s-.7-2.7-2.84-1.57m5.35,1.31c-1.82-.59-.62.87.24,1s1-.54-.24-1m1.89,1.42c-.6,0-.71.34.2.54,1.28.27.41-.51-.2-.54"/><line class="cls-3" x1="40" y1="880" x2="1040" y2="880"/><path class="cls-4" d="M48.43,56.3,40.36,42.16h5.4l5,9.37,5.1-9.37h5.25l-8.07,14v9.3H48.43Z"/><path class="cls-4" d="M62.74,56.66V56.6c0-5.14,3.72-9.31,8.73-9.31s8.67,4.11,8.67,9.24v.07c0,5.13-3.72,9.3-8.73,9.3S62.74,61.8,62.74,56.66Zm12.9,0V56.6c0-2.64-1.71-4.94-4.23-4.94s-4.17,2.24-4.17,4.87v.07c0,2.63,1.71,4.93,4.23,4.93S75.64,59.3,75.64,56.66Z"/><path class="cls-4" d="M83.32,59.2V47.63h4.56v10c0,2.4,1,3.63,2.76,3.63S93.49,60,93.49,57.6v-10h4.56V65.5H93.49V63c-1,1.5-2.4,2.86-4.71,2.86C85.33,65.83,83.32,63.3,83.32,59.2Z"/><path class="cls-4" d="M102.88,60.43V52H101V47.63h1.92V43.06h4.56v4.57h3.78V52h-3.78V59.6c0,1.17.45,1.73,1.47,1.73a4.28,4.28,0,0,0,2.25-.63v4.07a6.24,6.24,0,0,1-3.6,1C104.77,65.8,102.88,64.57,102.88,60.43Z"/><path class="cls-4" d="M114.58,41.16h4.56v9c1-1.5,2.4-2.87,4.71-2.87,3.45,0,5.46,2.54,5.46,6.64V65.5h-4.56v-10c0-2.4-1-3.63-2.76-3.63s-2.85,1.23-2.85,3.63v10h-4.56Z"/><path class="cls-4" d="M142.42,55.5V42.16H147v13.2c0,3.81,1.71,5.77,4.53,5.77s4.53-1.9,4.53-5.6V42.16h4.62V55.33c0,7.07-3.57,10.54-9.21,10.54S142.42,62.37,142.42,55.5Z"/><path class="cls-4" d="M165,47.63h4.56v2.53c1.05-1.5,2.4-2.87,4.71-2.87,3.45,0,5.46,2.54,5.46,6.64V65.5h-4.56v-10c0-2.4-1-3.63-2.76-3.63s-2.85,1.23-2.85,3.63v10H165Z"/><path class="cls-4" d="M182.86,56.66V56.6c0-5.1,3.27-9.31,7.95-9.31,5.37,0,7.83,4.64,7.83,9.71,0,.4,0,.87-.06,1.33H187.39c.45,2.3,1.89,3.5,3.93,3.5a5,5,0,0,0,3.9-1.83l2.61,2.57a7.76,7.76,0,0,1-6.57,3.33C186.43,65.9,182.86,62.13,182.86,56.66Zm11.34-1.5c-.27-2.26-1.47-3.8-3.39-3.8s-3.12,1.5-3.48,3.8Z"/><path class="cls-4" d="M202,47.63h4.56v2.53c1-1.5,2.43-2.87,4.74-2.87a4.75,4.75,0,0,1,4.53,2.84,6.41,6.41,0,0,1,5.27-2.84c3.4,0,5.43,2.27,5.43,6.57V65.5H222v-10c0-2.4-1-3.63-2.67-3.63s-2.75,1.23-2.75,3.63v10H212v-10c0-2.4-1-3.63-2.67-3.63s-2.76,1.23-2.76,3.63v10H202Z"/><path class="cls-4" d="M230.53,47.63h4.56V50.2a5.77,5.77,0,0,1,5-2.91c3.75,0,7.32,3.27,7.32,9.24v.07c0,6-3.51,9.23-7.32,9.23a6,6,0,0,1-5-2.66v7.66h-4.56Zm12.33,9v-.07c0-3-1.81-4.93-3.93-4.93s-3.9,2-3.9,4.93v.07c0,3,1.76,4.93,3.9,4.93S242.86,59.6,242.86,56.6Z"/><path class="cls-4" d="M251,41.16h4.55V65.5H251Z"/><path class="cls-4" d="M259.05,56.66V56.6c0-5.14,3.73-9.31,8.74-9.31s8.66,4.11,8.66,9.24v.07c0,5.13-3.72,9.3-8.73,9.3S259.05,61.8,259.05,56.66Zm12.9,0V56.6c0-2.64-1.71-4.94-4.23-4.94s-4.17,2.24-4.17,4.87v.07c0,2.63,1.71,4.93,4.24,4.93S272,59.3,272,56.66Z"/><path class="cls-4" d="M290.31,47.63h4.74l-6.18,18.3c-1.23,3.64-2.55,5-5.28,5a7,7,0,0,1-4-1.23L281.07,66a3.86,3.86,0,0,0,1.95.7c.78,0,1.2-.26,1.59-1.16l-6.3-17.94h4.83L286.8,59.8Z"/><path class="cls-4" d="M297.75,47.63h4.56v2.53c1.05-1.5,2.43-2.87,4.74-2.87a4.75,4.75,0,0,1,4.53,2.84,6.42,6.42,0,0,1,5.28-2.84c3.39,0,5.43,2.27,5.43,6.57V65.5h-4.56v-10c0-2.4-1-3.63-2.67-3.63s-2.76,1.23-2.76,3.63v10h-4.56v-10c0-2.4-1-3.63-2.67-3.63s-2.76,1.23-2.76,3.63v10h-4.56Z"/><path class="cls-4" d="M325.47,56.66V56.6c0-5.1,3.27-9.31,7.95-9.31,5.37,0,7.83,4.64,7.83,9.71,0,.4,0,.87-.06,1.33H330c.45,2.3,1.89,3.5,3.93,3.5a5,5,0,0,0,3.9-1.83l2.61,2.57a7.76,7.76,0,0,1-6.57,3.33C329,65.9,325.47,62.13,325.47,56.66Zm11.34-1.5c-.27-2.26-1.47-3.8-3.39-3.8s-3.12,1.5-3.48,3.8Z"/><path class="cls-4" d="M344.64,47.63h4.56v2.53c1.05-1.5,2.4-2.87,4.71-2.87,3.45,0,5.46,2.54,5.46,6.64V65.5h-4.56v-10c0-2.4-1-3.63-2.76-3.63s-2.85,1.23-2.85,3.63v10h-4.56Z"/><path class="cls-4" d="M364.08,60.43V52h-1.92V47.63h1.92V43.06h4.56v4.57h3.78V52h-3.78V59.6c0,1.17.45,1.73,1.47,1.73a4.28,4.28,0,0,0,2.25-.63v4.07a6.24,6.24,0,0,1-3.6,1C366,65.8,364.08,64.57,364.08,60.43Z"/><path class="cls-4" d="M384.87,41.16h4.8v4.5h-4.8Zm.12,6.47h4.56V65.5H385Z"/><path class="cls-4" d="M393.84,47.63h4.56v2.53c1.05-1.5,2.4-2.87,4.71-2.87,3.45,0,5.46,2.54,5.46,6.64V65.5H404v-10c0-2.4-1-3.63-2.76-3.63s-2.85,1.23-2.85,3.63v10h-4.56Z"/><path class="cls-4" d="M421.08,53.9v-.07c0-6.63,4.65-12.07,11-12.07a10.85,10.85,0,0,1,8.25,3.2l-2.91,3.9a7.33,7.33,0,0,0-5.49-2.36c-3.36,0-6,3.3-6,7.26v.07c0,4.27,2.64,7.4,6.36,7.4a6.81,6.81,0,0,0,4.35-1.4V56.5H432V52.06h9.12V62.2a12.9,12.9,0,0,1-9,3.7C425.58,65.9,421.08,60.8,421.08,53.9Z"/><path class="cls-4" d="M444.93,59.2V47.63h4.56v10c0,2.4,1,3.63,2.76,3.63S455.1,60,455.1,57.6v-10h4.56V65.5H455.1V63c-1.05,1.5-2.4,2.86-4.71,2.86C446.94,65.83,444.93,63.3,444.93,59.2Z"/><path class="cls-4" d="M474.3,47.63H479l-6.18,18.3c-1.23,3.64-2.55,5-5.28,5a7,7,0,0,1-4.05-1.23L465.06,66a3.86,3.86,0,0,0,1.95.7c.78,0,1.2-.26,1.59-1.16l-6.3-17.94h4.83l3.66,12.17Z"/><path class="cls-4" d="M480.78,60.37V60.3c0-3.9,2.67-5.7,6.48-5.7a10.47,10.47,0,0,1,3.93.73V55c0-2.1-1.17-3.27-3.45-3.27a10.81,10.81,0,0,0-4.44,1l-1.14-3.87a13.08,13.08,0,0,1,6.24-1.43,7,7,0,0,1,5.43,2,8.33,8.33,0,0,1,1.74,5.7V65.5h-4.41V63.57a5.93,5.93,0,0,1-4.86,2.26A5.2,5.2,0,0,1,480.78,60.37Zm10.47-1.17v-.9a6.47,6.47,0,0,0-2.91-.67c-1.95,0-3.15.87-3.15,2.47v.07c0,1.36,1,2.16,2.49,2.16C489.81,62.33,491.25,61,491.25,59.2Z"/><path class="cls-4" d="M499.5,47.63h4.56v2.53c1.05-1.5,2.4-2.87,4.71-2.87,3.45,0,5.46,2.54,5.46,6.64V65.5h-4.56v-10c0-2.4-1-3.63-2.76-3.63s-2.85,1.23-2.85,3.63v10H499.5Z"/><path class="cls-4" d="M517.23,60.37V60.3c0-3.9,2.67-5.7,6.48-5.7a10.47,10.47,0,0,1,3.93.73V55c0-2.1-1.17-3.27-3.45-3.27a10.81,10.81,0,0,0-4.44,1l-1.14-3.87a13.08,13.08,0,0,1,6.24-1.43,7,7,0,0,1,5.43,2,8.33,8.33,0,0,1,1.74,5.7V65.5h-4.41V63.57a5.93,5.93,0,0,1-4.86,2.26A5.2,5.2,0,0,1,517.23,60.37ZM527.7,59.2v-.9a6.47,6.47,0,0,0-2.91-.67c-1.95,0-3.15.87-3.15,2.47v.07c0,1.36,1,2.16,2.49,2.16C526.26,62.33,527.7,61,527.7,59.2Z"/><g class="cls-5"><line class="cls-6" x1="540.24" y1="359.3" x2="540.24" y2="365.3"/><line class="cls-7" x1="540.24" y1="377.59" x2="540.24" y2="641.77"/><line class="cls-6" x1="540.24" y1="647.91" x2="540.24" y2="653.91"/></g><rect class="cls-8" x="140.47" y="436.14" width="98.2" height="339.79"/><rect class="cls-8" x="321.22" y="225.99" width="98.2" height="549.95"/><path class="cls-9" d="M161.41,817.88h3.86l6.28,9.75,6.27-9.75h3.86V838.5h-3.62V823.71l-6.51,9.73h-.12L165,823.77V838.5h-3.57Z"/><path class="cls-9" d="M185.72,830.78v0c0-4.45,3.15-8.11,7.6-8.11,5,0,7.45,3.89,7.45,8.37,0,.32,0,.65-.06,1H189.28a4.34,4.34,0,0,0,4.48,4,5.62,5.62,0,0,0,4.21-1.86l2.1,1.86a7.88,7.88,0,0,1-6.37,2.92A7.76,7.76,0,0,1,185.72,830.78Zm11.52-1.15c-.24-2.29-1.59-4.09-4-4.09-2.18,0-3.71,1.68-4,4.09Z"/><path class="cls-9" d="M204.36,823h3.57v2.38a5.65,5.65,0,0,1,4.86-2.71c3.51,0,5.54,2.36,5.54,6v9.93h-3.56v-8.84c0-2.41-1.21-3.8-3.33-3.8s-3.51,1.45-3.51,3.86v8.78h-3.57Z"/><path class="cls-9" d="M314.2,817.88h3.91L323,833.17l5.06-15.35h3.07l5.07,15.35,4.92-15.29H345l-7.16,20.77h-3.16l-5.06-14.82-5.07,14.82h-3.13Z"/><path class="cls-9" d="M345.48,830.81v-.06a8.3,8.3,0,0,1,16.59,0v0a8.14,8.14,0,0,1-8.34,8.11A8.05,8.05,0,0,1,345.48,830.81Zm13,0v-.06a4.81,4.81,0,0,0-4.78-5,4.67,4.67,0,0,0-4.68,5v0a4.79,4.79,0,0,0,4.74,5A4.67,4.67,0,0,0,358.51,830.81Z"/><path class="cls-9" d="M365.69,823h3.57v2.35a5.58,5.58,0,0,1,4.74-2.68,5,5,0,0,1,4.66,2.74,6.26,6.26,0,0,1,5.24-2.74c3.39,0,5.45,2.15,5.45,6v9.93h-3.56v-8.84c0-2.47-1.15-3.8-3.15-3.8s-3.33,1.36-3.33,3.86v8.78h-3.57v-8.87c0-2.41-1.18-3.77-3.15-3.77s-3.33,1.48-3.33,3.86v8.78h-3.57Z"/><path class="cls-9" d="M392.83,830.78v0c0-4.45,3.15-8.11,7.6-8.11,4.95,0,7.45,3.89,7.45,8.37,0,.32,0,.65-.05,1H396.39a4.34,4.34,0,0,0,4.48,4,5.66,5.66,0,0,0,4.22-1.86l2.09,1.86a7.88,7.88,0,0,1-6.37,2.92A7.76,7.76,0,0,1,392.83,830.78Zm11.52-1.15c-.24-2.29-1.59-4.09-4-4.09-2.18,0-3.71,1.68-4,4.09Z"/><path class="cls-9" d="M411.48,823H415v2.38a5.65,5.65,0,0,1,4.86-2.71c3.51,0,5.54,2.36,5.54,6v9.93h-3.56v-8.84c0-2.41-1.21-3.8-3.33-3.8s-3.51,1.45-3.51,3.86v8.78h-3.56Z"/><path class="cls-9" d="M152.42,387.16l-3.78,1-.82-4.45,6.12-1.84h3.54v24.92h-5.06Z"/><path class="cls-9" d="M172.32,386.7H162.07v-4.63h15.8v3.81l-9.47,20.93h-5.59Z"/><path class="cls-9" d="M178.16,401.37h5.48v5.44h-5.48Z"/><path class="cls-9" d="M186.54,403.77l3.07-3.6a6.64,6.64,0,0,0,5,2.4,3.16,3.16,0,0,0,3.43-3.22v-.07c0-2.12-1.77-3.36-4.95-3.36h-1.49l-.6-3.25,5.44-6h-8.59v-4.56h14.89v4.06l-5.8,6.08c3.18.64,6.15,2.62,6.15,6.9v.1c0,4.74-3.36,8-8.38,8A10.71,10.71,0,0,1,186.54,403.77Z"/><path class="cls-9" d="M206.08,388.39v-.28c0-3.6,2.2-6.33,5.45-6.33s5.37,2.69,5.37,6.26v.28c0,3.57-2.19,6.3-5.44,6.3S206.08,392,206.08,388.39Zm18.53-6.32h3.71l-8.77,13.15-7.38,11.59h-3.68l8.77-13.15Zm-15.06,6v.18c0,1.94.78,3.22,2,3.22s1.91-1.28,1.91-3.19v-.17c0-1.95-.78-3.22-2-3.22S209.55,386.2,209.55,388.11Zm10.32,12.73v-.28c0-3.61,2.2-6.3,5.45-6.3s5.37,2.66,5.37,6.23v.28c0,3.61-2.15,6.33-5.44,6.33S219.87,404.41,219.87,400.84Zm7.36-.07v-.18c0-1.94-.78-3.21-2-3.21s-1.91,1.27-1.91,3.18v.17c0,1.95.78,3.22,2,3.22S227.23,402.68,227.23,400.77Z"/><path class="cls-9" d="M324,192.52l7.29-7.49c2.61-2.69,3.57-4,3.57-5.84a2.78,2.78,0,0,0-3-2.93c-1.74,0-2.94,1-4.53,2.93L324,176.05c2.16-2.94,4.67-4.49,8.24-4.49,4.56,0,7.77,2.72,7.77,7.21v.07c0,3.46-1.59,5.44-5.26,9l-4.14,4.21H340v4.6H324Z"/><path class="cls-9" d="M343,189.9v-.1a6.12,6.12,0,0,1,3.72-6,6,6,0,0,1-3-5.41v-.14c0-3.82,3.18-6.71,7.91-6.71s7.92,2.86,7.92,6.71v.14a6.06,6.06,0,0,1-3,5.41c2.19,1.21,3.71,2.83,3.71,5.87v.14c0,4.49-3.68,7.18-8.63,7.18S343,194.25,343,189.9Zm12.34-.42v-.07c0-2-1.59-3.29-3.68-3.29s-3.67,1.24-3.67,3.29v.07c0,2,1.45,3.32,3.67,3.32S355.31,191.5,355.31,189.48Zm-.6-10.68v0a3.1,3.1,0,0,0-6.19,0v0a3.1,3.1,0,1,0,6.19,0Z"/><path class="cls-9" d="M363.51,191.21H369v5.45h-5.48Z"/><path class="cls-9" d="M372.28,189.9v-.1a6.12,6.12,0,0,1,3.71-6,6.06,6.06,0,0,1-3-5.41v-.14c0-3.82,3.19-6.71,7.92-6.71s7.92,2.86,7.92,6.71v.14a6.08,6.08,0,0,1-3,5.41c2.19,1.21,3.71,2.83,3.71,5.87v.14c0,4.49-3.68,7.18-8.63,7.18S372.28,194.25,372.28,189.9Zm12.34-.42v-.07c0-2-1.59-3.29-3.68-3.29s-3.67,1.24-3.67,3.29v.07c0,2,1.44,3.32,3.67,3.32S384.62,191.5,384.62,189.48ZM384,178.8v0a3.1,3.1,0,0,0-6.19,0v0a3.1,3.1,0,1,0,6.19,0Z"/><path class="cls-9" d="M392.25,178.24V178c0-3.61,2.2-6.33,5.45-6.33s5.37,2.68,5.37,6.25v.29c0,3.57-2.19,6.29-5.44,6.29S392.25,181.81,392.25,178.24Zm18.53-6.33h3.71l-8.77,13.15-7.38,11.6h-3.68l8.77-13.16ZM395.72,178v.17c0,2,.78,3.22,2,3.22s1.91-1.27,1.91-3.18V178c0-1.94-.78-3.22-2-3.22S395.72,176.05,395.72,178ZM406,190.68v-.28c0-3.61,2.2-6.29,5.45-6.29s5.37,2.65,5.37,6.22v.28c0,3.61-2.15,6.33-5.44,6.33S406,194.25,406,190.68Zm7.36-.07v-.18c0-1.94-.78-3.21-2-3.21s-1.91,1.27-1.91,3.18v.18c0,1.94.78,3.21,2,3.21S413.4,192.52,413.4,190.61Z"/><rect class="cls-10" x="658.98" y="294.73" width="98.2" height="481.2"/><rect class="cls-10" x="859.07" y="373.29" width="98.2" height="402.64"/><path class="cls-9" d="M665.51,829.75V817.88h3.63v11.73c0,3.83,2,5.86,5.21,5.86s5.19-1.92,5.19-5.72V817.88h3.62v11.7c0,6.15-3.47,9.25-8.87,9.25S665.51,835.73,665.51,829.75Z"/><path class="cls-9" d="M687.73,823h3.56v3.5c1-2.33,2.77-3.92,5.51-3.8v3.77h-.2c-3.13,0-5.31,2-5.31,6.16v5.92h-3.56Z"/><path class="cls-9" d="M703.46,836.09v2.41h-3.57V817h3.57v8.54a6.23,6.23,0,0,1,5.3-2.92c3.66,0,7.22,2.89,7.22,8.08v0c0,5.16-3.53,8.08-7.22,8.08A6.36,6.36,0,0,1,703.46,836.09Zm8.9-5.34v0c0-3-2-5-4.45-5a4.69,4.69,0,0,0-4.54,5v0a4.69,4.69,0,0,0,4.54,5C710.35,835.73,712.36,833.82,712.36,830.75Z"/><path class="cls-9" d="M718.63,834V834c0-3.36,2.62-5,6.42-5a12.84,12.84,0,0,1,4.19.65v-.39c0-2.21-1.36-3.39-3.86-3.39a10.8,10.8,0,0,0-4.45,1L720,824a13.22,13.22,0,0,1,5.86-1.27,7,7,0,0,1,5.16,1.74,6.45,6.45,0,0,1,1.68,4.8v9.22h-3.48v-1.94a6.31,6.31,0,0,1-5.07,2.27C721.22,838.83,718.63,837.15,718.63,834Zm10.67-1.12v-1.07a10,10,0,0,0-3.54-.61c-2.3,0-3.65,1-3.65,2.59v.06c0,1.5,1.32,2.36,3,2.36C727.5,836.24,729.3,834.88,729.3,832.91Z"/><path class="cls-9" d="M737,823h3.56v2.38a5.65,5.65,0,0,1,4.86-2.71c3.51,0,5.54,2.36,5.54,6v9.93h-3.56v-8.84c0-2.41-1.21-3.8-3.33-3.8s-3.51,1.45-3.51,3.86v8.78H737Z"/><path class="cls-9" d="M872.46,817.88h9.2a8.3,8.3,0,0,1,6,2.06,6.23,6.23,0,0,1,1.71,4.45v.06a6.21,6.21,0,0,1-4.89,6.25l5.57,7.8h-4.31l-5.07-7.19h-4.53v7.19h-3.63Zm8.93,10.22c2.59,0,4.24-1.35,4.24-3.44v-.06c0-2.21-1.59-3.42-4.27-3.42h-5.27v6.92Z"/><path class="cls-9" d="M893.17,832.85V823h3.57v8.84c0,2.41,1.21,3.77,3.33,3.77s3.51-1.42,3.51-3.83V823h3.59V838.5h-3.59v-2.41a5.63,5.63,0,0,1-4.87,2.74C895.21,838.83,893.17,836.47,893.17,832.85Z"/><path class="cls-9" d="M911.62,823h3.56v3.5c1-2.33,2.77-3.92,5.51-3.8v3.77h-.2c-3.13,0-5.31,2-5.31,6.16v5.92h-3.56Z"/><path class="cls-9" d="M922,834V834c0-3.36,2.62-5,6.42-5a12.74,12.74,0,0,1,4.18.65v-.39c0-2.21-1.35-3.39-3.86-3.39a10.88,10.88,0,0,0-4.45,1l-.94-2.8a13.24,13.24,0,0,1,5.87-1.27,7,7,0,0,1,5.15,1.74,6.45,6.45,0,0,1,1.68,4.8v9.22h-3.48v-1.94a6.31,6.31,0,0,1-5.06,2.27C924.61,838.83,922,837.15,922,834Zm10.66-1.12v-1.07a10,10,0,0,0-3.53-.61c-2.3,0-3.66,1-3.66,2.59v.06c0,1.5,1.33,2.36,3,2.36C930.89,836.24,932.68,834.88,932.68,832.91Z"/><path class="cls-9" d="M940.55,817h3.56v21.5h-3.56Z"/><path class="cls-9" d="M861.06,339.83l7.29-7.5c2.61-2.68,3.57-4,3.57-5.83a2.78,2.78,0,0,0-3-2.94c-1.74,0-2.94,1-4.53,2.94l-3.32-3.15c2.15-2.93,4.66-4.49,8.23-4.49,4.57,0,7.78,2.72,7.78,7.21v.08c0,3.46-1.59,5.44-5.26,9l-4.14,4.21h9.44V344H861.06Z"/><path class="cls-9" d="M880.37,331.84v-.46c0-7.57,3.81-12.59,9.68-12.59s9.62,5,9.62,12.55v.46c0,7.57-3.82,12.59-9.69,12.59S880.37,339.4,880.37,331.84Zm14.07-.07v-.32c0-5.2-1.84-8-4.46-8s-4.38,2.72-4.38,8v.32c0,5.2,1.8,8,4.45,8S894.44,337,894.44,331.77Z"/><path class="cls-9" d="M902.64,338.52h5.48V344h-5.48Z"/><path class="cls-9" d="M911.23,341.24l2.86-3.82a7.4,7.4,0,0,0,4.95,2.23,3.46,3.46,0,0,0,3.79-3.64v0c0-2.19-1.7-3.5-4-3.5a8.46,8.46,0,0,0-3.39.78l-2.87-1.87.71-12.16h13.54v4.59h-9.3l-.28,4.49A10.14,10.14,0,0,1,920,328c4.2,0,7.85,2.26,7.85,7.81v.11c0,5.27-3.58,8.52-8.7,8.52A11.27,11.27,0,0,1,911.23,341.24Z"/><path class="cls-9" d="M930.85,325.54v-.28c0-3.6,2.19-6.33,5.44-6.33s5.38,2.69,5.38,6.26v.28c0,3.57-2.19,6.3-5.45,6.3S930.85,329.12,930.85,325.54Zm18.53-6.32h3.71l-8.77,13.15L936.93,344h-3.68L942,330.81Zm-15.07,6v.18c0,1.94.78,3.22,2,3.22s1.91-1.28,1.91-3.19v-.17c0-1.95-.77-3.22-2-3.22S934.31,323.35,934.31,325.26ZM944.64,338v-.28c0-3.61,2.19-6.3,5.44-6.3s5.38,2.65,5.38,6.23v.28c0,3.6-2.16,6.33-5.45,6.33S944.64,341.56,944.64,338Zm7.35-.07v-.18c0-1.94-.78-3.22-2-3.22s-1.91,1.28-1.91,3.19v.17c0,1.95.78,3.22,2,3.22S952,339.83,952,337.92Z"/><path class="cls-9" d="M661.51,261.26l7.28-7.49c2.62-2.69,3.57-4,3.57-5.83a2.77,2.77,0,0,0-3-2.94c-1.73,0-2.93,1-4.52,2.94l-3.33-3.15c2.16-2.94,4.67-4.49,8.24-4.49,4.56,0,7.78,2.72,7.78,7.21v.07c0,3.47-1.59,5.45-5.27,9l-4.14,4.2h9.44v4.6H661.51Z"/><path class="cls-9" d="M690.92,260.31H680.28l-.64-3.71,11.64-16.09h4.49V256h3v4.28h-3v5.09h-4.85Zm0-4.28v-8l-5.65,8Z"/><path class="cls-9" d="M702,260h5.48v5.44H702Z"/><path class="cls-9" d="M710.61,262.68l2.87-3.82a7.38,7.38,0,0,0,4.95,2.23,3.46,3.46,0,0,0,3.78-3.64v0c0-2.19-1.7-3.5-4-3.5a8.29,8.29,0,0,0-3.39.78L712,252.81l.7-12.16H726.2v4.6h-9.29l-.29,4.49a10.16,10.16,0,0,1,2.76-.36c4.21,0,7.85,2.27,7.85,7.82v.1c0,5.27-3.57,8.52-8.7,8.52A11.26,11.26,0,0,1,710.61,262.68Z"/><path class="cls-9" d="M730.23,247v-.28c0-3.61,2.2-6.33,5.45-6.33s5.37,2.69,5.37,6.26v.28c0,3.57-2.19,6.29-5.44,6.29S730.23,250.55,730.23,247Zm18.53-6.33h3.71L743.7,253.8l-7.39,11.6h-3.67l8.77-13.15Zm-15.06,6v.18c0,1.94.78,3.21,2,3.21s1.91-1.27,1.91-3.18v-.18c0-1.94-.78-3.21-2-3.21S733.7,244.79,733.7,246.7ZM744,259.43v-.29c0-3.6,2.19-6.29,5.45-6.29s5.37,2.65,5.37,6.22v.28c0,3.61-2.16,6.33-5.44,6.33S744,263,744,259.43Zm7.36-.08v-.17c0-1.95-.78-3.22-2-3.22s-1.91,1.27-1.91,3.18v.18c0,1.94.77,3.22,2,3.22S751.38,261.26,751.38,259.35Z"/></svg>