<svg id="Layer_1" data-name="Layer 1" xmlns="http://www.w3.org/2000/svg" viewBox="0 0 1080 930"><defs><style>.cls-1{fill:#f9f9fa;}.cls-2{font-size:28px;font-family:Gotham-Book, Gotham;}.cls-2,.cls-3,.cls-4,.cls-6{fill:#3c3c3c;}.cls-3{font-size:24px;font-family:GothamNarrow-Book, Gotham Narrow;}.cls-5,.cls-8,.cls-9{fill:none;stroke:#3d3d3d;stroke-miterlimit:10;}.cls-5{stroke-width:1.01px;}.cls-5,.cls-7{opacity:0.5;}.cls-6{font-size:30px;font-family:Gotham-Bold, Gotham;}.cls-15,.cls-21,.cls-6{font-weight:700;}.cls-9{stroke-dasharray:12.29 12.29;}.cls-10{fill:#9a4e95;}.cls-11{font-size:29.46px;font-family:Gotham-Medium, Gotham;font-weight:500;}.cls-11,.cls-15,.cls-21{fill:#231f20;}.cls-12{letter-spacing:-0.02em;}.cls-13{letter-spacing:-0.02em;}.cls-14{letter-spacing:0em;}.cls-15,.cls-21{font-size:35.35px;font-family:GothamNarrow-Bold, Gotham Narrow;}.cls-16{letter-spacing:-0.09em;}.cls-17{letter-spacing:0em;}.cls-18{fill:#ecad20;}.cls-19{letter-spacing:-0.02em;}.cls-20{letter-spacing:-0.02em;}.cls-21{letter-spacing:-0.01em;}.cls-22{letter-spacing:0em;}</style></defs><title>web-esp</title><rect class="cls-1" width="1080" height="930"/><text class="cls-2" transform="translate(40 109.2) scale(1 1.11)">La tasa de mujeres jóvenes desocupadas es casi el doble que la <tspan x="0" y="30.24">de hombres.</tspan></text><text class="cls-3" transform="translate(40 909.25)">Datos: Instituto Nacional de Estadística de Guyana (2017)</text><path class="cls-4" d="M1014.19,901.37a4,4,0,0,0,1.89-3.57v0a4.08,4.08,0,0,0-1.23-3,6.28,6.28,0,0,0-4.56-1.56h-8v17.27h8.22c4.15,0,6.53-1.77,6.53-4.86v0a4.17,4.17,0,0,0-2.82-4.16m-3.71,5.3h-4.11v-3.15h4c1.64,0,2.47.52,2.47,1.55v0c0,1-.79,1.55-2.35,1.55m-4.11-6.74v-3h3.37c1,0,2.15.25,2.15,1.45v0c0,1-.8,1.51-2.39,1.51Z"/><path class="cls-4" d="M1030.84,893.16h-6.79v17.27h6.79a9.44,9.44,0,0,0,6.6-2.49,8.44,8.44,0,0,0,2.56-6.15v0c0-5-3.85-8.59-9.16-8.59m4.78,8.63v.05a4.51,4.51,0,0,1-4.78,4.74h-2.58V897h2.58a4.52,4.52,0,0,1,4.78,4.78"/><path class="cls-4" d="M1020.28,893.13a2.11,2.11,0,0,1,2.1,2.11v15.19h-4.21v-17.3Z"/><path class="cls-4" d="M984.69,904.41c-2.22,3.6,4.93,3.66,1.62,10.39l-.29.05a14.11,14.11,0,0,1-13.69-21.93c-.36,8.13,14.44,8.12,12.36,11.49m3.16,10c.76-1.41,2.42-3.48,6-7.65,5.31-6.23-10.41-4.14-13.1-8.85-2.22-3.89,6-6.68,11-8.85a14.11,14.11,0,0,1-3.88,25.35m-4.66-17.79c-.53.27.42,1.5,2.84,1.57s-.7-2.7-2.84-1.57m5.35,1.31c-1.82-.59-.62.87.24,1s1-.54-.24-1m1.89,1.42c-.6,0-.71.34.2.54,1.28.27.41-.51-.2-.54"/><line class="cls-5" x1="40" y1="880" x2="1040" y2="880"/><text class="cls-6" transform="translate(40 65.5) scale(1 1.11)">Desempleo juvenil en Guyana</text><g class="cls-7"><line class="cls-8" x1="540.24" y1="359.3" x2="540.24" y2="365.3"/><line class="cls-9" x1="540.24" y1="377.59" x2="540.24" y2="641.77"/><line class="cls-8" x1="540.24" y1="647.91" x2="540.24" y2="653.91"/></g><rect class="cls-10" x="140.47" y="436.14" width="98.2" height="339.79"/><rect class="cls-10" x="321.22" y="225.99" width="98.2" height="549.95"/><text class="cls-11" transform="translate(122.73 838.5)">Homb<tspan class="cls-12" x="89.5" y="0">r</tspan><tspan x="101.14" y="0">es</tspan></text><text class="cls-11" transform="translate(313.19 838.5)">Muje<tspan class="cls-13" x="70.06" y="0">r</tspan><tspan class="cls-14" x="81.7" y="0">es</tspan></text><text class="cls-15" transform="translate(147.08 406.81)">1<tspan class="cls-16" x="13.15" y="0">7</tspan><tspan class="cls-17" x="29.13" y="0">,3%</tspan></text><text class="cls-15" transform="translate(322.4 196.66)">28,8%</text><rect class="cls-18" x="658.98" y="294.73" width="98.2" height="481.2"/><rect class="cls-18" x="859.07" y="373.29" width="98.2" height="402.64"/><text class="cls-11" transform="translate(653.51 838.5)">Urbano</text><text class="cls-11" transform="translate(869.81 838.5)">Ru<tspan class="cls-19" x="39.57" y="0">r</tspan><tspan x="51" y="0">al</tspan></text><text class="cls-15" transform="translate(859.51 343.96)">2<tspan class="cls-20" x="19.27" y="0">0</tspan><tspan class="cls-17" x="41.19" y="0">,5%</tspan></text><text class="cls-21" transform="translate(659.95 265.4)">2<tspan class="cls-22" x="18.77" y="0">4,5%</tspan></text></svg>